<svg width="36" height="23" viewBox="0 0 36 23" fill="none" xmlns="http://www.w3.org/2000/svg">
<path d="M3.36274 6.85989C3.80594 7.11274 5.1419 7.86367 7.37069 9.11232C9.59956 10.361 11.307 11.3224 12.4931 11.9966C12.6235 12.0705 12.9003 12.2312 13.3239 12.4788C13.7475 12.7267 14.0995 12.9269 14.3795 13.0796C14.6598 13.2323 14.9987 13.4036 15.3964 13.5932C15.794 13.7827 16.1688 13.9252 16.5207 14.0195C16.8727 14.1146 17.1985 14.1617 17.4982 14.1617H17.5179H17.5376C17.8373 14.1617 18.1633 14.1146 18.5153 14.0195C18.8671 13.9252 19.2422 13.7825 19.6394 13.5932C20.0369 13.4034 20.3757 13.2323 20.656 13.0796C20.9363 12.9269 21.288 12.7266 21.7118 12.4788C22.1352 12.231 22.4124 12.0705 22.5427 11.9966C23.7417 11.3224 26.792 9.60996 31.6926 6.85956C32.6441 6.32238 33.439 5.67421 34.0775 4.91547C34.7166 4.15705 35.0358 3.36143 35.0358 2.52907C35.0358 1.83349 34.726 1.23807 34.1068 0.742855C33.4877 0.247524 32.7544 0 31.9075 0H3.12806C2.1245 0 1.35219 0.273933 0.811274 0.821796C0.270424 1.36978 0 2.05472 0 2.87658C0 3.54043 0.358557 4.2598 1.07533 5.03427C1.79203 5.80878 2.55476 6.41738 3.36274 6.85989Z" fill="white"/>
<path d="M33.0804 8.55112C28.8056 10.8902 25.5597 12.7081 23.3442 14.0044C22.6013 14.4468 21.9986 14.7921 21.5358 15.0396C21.0729 15.2872 20.4573 15.5401 19.6882 15.7982C18.9193 16.0566 18.2027 16.1854 17.5379 16.1854H17.5179H17.4983C16.8336 16.1854 16.1166 16.0566 15.3477 15.7982C14.5788 15.5401 13.9628 15.2872 13.5001 15.0396C13.0376 14.7921 12.4347 14.4468 11.6918 14.0044C9.93209 12.9612 6.69316 11.1432 1.97487 8.55112C1.23174 8.15094 0.573514 7.69228 0 7.17603V19.7259C0 20.4218 0.306171 21.0168 0.918854 21.5121C1.5314 22.0076 2.26796 22.2552 3.12827 22.2552H31.9078C32.7679 22.2552 33.5044 22.0076 34.117 21.5121C34.7298 21.0167 35.0358 20.4218 35.0358 19.7259V7.17603C34.4752 7.68159 33.8237 8.14027 33.0804 8.55112Z" fill="white"/>
</svg>
