<svg width="109" height="16" viewBox="0 0 109 16" fill="none" xmlns="http://www.w3.org/2000/svg">
<path d="M62.7458 5.78721C62.6932 5.62591 62.555 5.51069 62.3872 5.48436L57.3873 4.7733L55.1373 0.246895C55.0617 0.0954657 54.907 0 54.7393 0C54.5715 0 54.4169 0.0954656 54.3413 0.250187L52.1209 4.78976L47.1209 5.53374C46.9532 5.56007 46.815 5.67529 46.7624 5.83659C46.7098 5.9979 46.7558 6.17566 46.8775 6.29088L50.5058 9.80995L49.667 14.7939C49.6374 14.9618 49.7064 15.1297 49.8446 15.2285C49.9203 15.2844 50.0124 15.3141 50.1045 15.3141C50.1768 15.3141 50.2459 15.2976 50.3117 15.2614L54.7755 12.8945L59.2524 15.2351C59.3182 15.268 59.3873 15.2844 59.4563 15.2844C59.6998 15.2844 59.9004 15.0836 59.9004 14.84C59.9004 14.8038 59.8971 14.7709 59.8873 14.738L59.0221 9.78362L62.6274 6.24479C62.7557 6.12628 62.7984 5.94852 62.7458 5.78721Z" fill="#F9B01B"/>
<path d="M108.711 5.78721C108.658 5.62591 108.52 5.51069 108.352 5.48436L103.352 4.7733L101.103 0.246895C101.027 0.0954657 100.872 0 100.704 0C100.537 0 100.382 0.0954656 100.306 0.250187L98.0861 4.78976L93.0861 5.53374C92.9184 5.56007 92.7802 5.67529 92.7276 5.83659C92.675 5.9979 92.721 6.17566 92.8427 6.29088L96.471 9.80995L95.6322 14.7939C95.6026 14.9618 95.6716 15.1297 95.8098 15.2285C95.8855 15.2844 95.9776 15.3141 96.0697 15.3141C96.142 15.3141 96.2111 15.2976 96.2769 15.2614L100.741 12.8945L105.218 15.2351C105.283 15.268 105.352 15.2844 105.422 15.2844C105.665 15.2844 105.866 15.0836 105.866 14.84C105.866 14.8038 105.862 14.7709 105.852 14.738L104.987 9.78362L108.593 6.24479C108.721 6.12628 108.764 5.94852 108.711 5.78721Z" fill="#F9B01B"/>
<path d="M39.7632 5.78721C39.7105 5.62591 39.5724 5.51069 39.4046 5.48436L34.4047 4.7733L32.1547 0.246895C32.0791 0.0954657 31.9244 0 31.7567 0C31.5889 0 31.4343 0.0954656 31.3587 0.250187L29.1383 4.78976L24.1383 5.53374C23.9706 5.56007 23.8324 5.67529 23.7798 5.83659C23.7272 5.9979 23.7732 6.17566 23.8949 6.29088L27.5232 9.80995L26.6844 14.7939C26.6548 14.9618 26.7238 15.1297 26.862 15.2285C26.9377 15.2844 27.0298 15.3141 27.1219 15.3141C27.1942 15.3141 27.2633 15.2976 27.3291 15.2614L31.7929 12.8945L36.2698 15.2351C36.3356 15.268 36.4047 15.2844 36.4737 15.2844C36.7172 15.2844 36.9178 15.0836 36.9178 14.84C36.9178 14.8038 36.9145 14.7709 36.9047 14.738L36.0395 9.78362L39.6448 6.24479C39.7731 6.12628 39.8158 5.94852 39.7632 5.78721Z" fill="#F9B01B"/>
<path d="M85.7284 5.78721C85.6758 5.62591 85.5376 5.51069 85.3698 5.48436L80.3699 4.7733L78.1199 0.246895C78.0443 0.0954657 77.8897 0 77.7219 0C77.5541 0 77.3995 0.0954656 77.3239 0.250187L75.1035 4.78976L70.1035 5.53374C69.9358 5.56007 69.7976 5.67529 69.745 5.83659C69.6924 5.9979 69.7384 6.17566 69.8601 6.29088L73.4884 9.80995L72.6496 14.7939C72.62 14.9618 72.689 15.1297 72.8272 15.2285C72.9029 15.2844 72.995 15.3141 73.0871 15.3141C73.1594 15.3141 73.2285 15.2976 73.2943 15.2614L77.7581 12.8945L82.235 15.2351C82.3008 15.268 82.3699 15.2844 82.4389 15.2844C82.6824 15.2844 82.883 15.0836 82.883 14.84C82.883 14.8038 82.8797 14.7709 82.8699 14.738L82.0047 9.78362L85.61 6.24479C85.7383 6.12628 85.781 5.94852 85.7284 5.78721Z" fill="#F9B01B"/>
<path d="M16.7807 5.78721C16.7281 5.62591 16.59 5.51069 16.4222 5.48436L11.4222 4.7733L9.17227 0.246895C9.09662 0.0954657 8.94201 0 8.77425 0C8.60649 0 8.45189 0.0954656 8.37623 0.250187L6.15586 4.78976L1.15591 5.53374C0.988147 5.56007 0.84999 5.67529 0.797359 5.83659C0.744728 5.9979 0.79078 6.17566 0.91249 6.29088L4.54074 9.80995L3.70193 14.7939C3.67233 14.9618 3.74141 15.1297 3.87956 15.2285C3.95522 15.2844 4.04733 15.3141 4.13943 15.3141C4.2118 15.3141 4.28088 15.2976 4.34667 15.2614L8.81043 12.8945L13.2874 15.2351C13.3532 15.268 13.4222 15.2844 13.4913 15.2844C13.7347 15.2844 13.9354 15.0836 13.9354 14.84C13.9354 14.8038 13.9321 14.7709 13.9222 14.738L13.0571 9.78362L16.6623 6.24479C16.7906 6.12628 16.8334 5.94852 16.7807 5.78721Z" fill="#F9B01B"/>
</svg>
